<?xml version="1.0" encoding="UTF-8"?>
<?xml-stylesheet href="https://cdnjs.cloudflare.com/ajax/libs/font-awesome/6.6.0/css/all.min.css" type="text/css"?>
<svg aria-roledescription="er" role="graphics-document document" viewBox="0 0 748.4765625 452" style="max-width: 100%;" xmlns="http://www.w3.org/2000/svg" width="100%" id="graph-div" height="100%" xmlns:xlink="http://www.w3.org/1999/xlink"><style>#graph-div{font-family:"trebuchet ms",verdana,arial,sans-serif;font-size:16px;fill:#333;}#graph-div .error-icon{fill:#552222;}#graph-div .error-text{fill:#552222;stroke:#552222;}#graph-div .edge-thickness-normal{stroke-width:1px;}#graph-div .edge-thickness-thick{stroke-width:3.5px;}#graph-div .edge-pattern-solid{stroke-dasharray:0;}#graph-div .edge-thickness-invisible{stroke-width:0;fill:none;}#graph-div .edge-pattern-dashed{stroke-dasharray:3;}#graph-div .edge-pattern-dotted{stroke-dasharray:2;}#graph-div .marker{fill:#333333;stroke:#333333;}#graph-div .marker.cross{stroke:#333333;}#graph-div svg{font-family:"trebuchet ms",verdana,arial,sans-serif;font-size:16px;}#graph-div p{margin:0;}#graph-div .entityBox{fill:#ECECFF;stroke:#9370DB;}#graph-div .attributeBoxOdd{fill:#ffffff;stroke:#9370DB;}#graph-div .attributeBoxEven{fill:#f2f2f2;stroke:#9370DB;}#graph-div .relationshipLabelBox{fill:hsl(80, 100%, 96.2745098039%);opacity:0.7;background-color:hsl(80, 100%, 96.2745098039%);}#graph-div .relationshipLabelBox rect{opacity:0.5;}#graph-div .relationshipLine{stroke:#333333;}#graph-div .entityTitleText{text-anchor:middle;font-size:18px;fill:#333;}#graph-div #MD_PARENT_START{fill:#f5f5f5!important;stroke:#333333!important;stroke-width:1;}#graph-div #MD_PARENT_END{fill:#f5f5f5!important;stroke:#333333!important;stroke-width:1;}#graph-div :root{--mermaid-font-family:"trebuchet ms",verdana,arial,sans-serif;}</style><g></g><defs><marker orient="auto" markerHeight="240" markerWidth="190" refY="7" refX="0" id="MD_PARENT_START"><path d="M 18,7 L9,13 L1,7 L9,1 Z"></path></marker></defs><defs><marker orient="auto" markerHeight="28" markerWidth="20" refY="7" refX="19" id="MD_PARENT_END"><path d="M 18,7 L9,13 L1,7 L9,1 Z"></path></marker></defs><defs><marker orient="auto" markerHeight="18" markerWidth="18" refY="9" refX="0" id="ONLY_ONE_START"><path d="M9,0 L9,18 M15,0 L15,18" fill="none" stroke="gray"></path></marker></defs><defs><marker orient="auto" markerHeight="18" markerWidth="18" refY="9" refX="18" id="ONLY_ONE_END"><path d="M3,0 L3,18 M9,0 L9,18" fill="none" stroke="gray"></path></marker></defs><defs><marker orient="auto" markerHeight="18" markerWidth="30" refY="9" refX="0" id="ZERO_OR_ONE_START"><circle r="6" cy="9" cx="21" fill="white" stroke="gray"></circle><path d="M9,0 L9,18" fill="none" stroke="gray"></path></marker></defs><defs><marker orient="auto" markerHeight="18" markerWidth="30" refY="9" refX="30" id="ZERO_OR_ONE_END"><circle r="6" cy="9" cx="9" fill="white" stroke="gray"></circle><path d="M21,0 L21,18" fill="none" stroke="gray"></path></marker></defs><defs><marker orient="auto" markerHeight="36" markerWidth="45" refY="18" refX="18" id="ONE_OR_MORE_START"><path d="M0,18 Q 18,0 36,18 Q 18,36 0,18 M42,9 L42,27" fill="none" stroke="gray"></path></marker></defs><defs><marker orient="auto" markerHeight="36" markerWidth="45" refY="18" refX="27" id="ONE_OR_MORE_END"><path d="M3,9 L3,27 M9,18 Q27,0 45,18 Q27,36 9,18" fill="none" stroke="gray"></path></marker></defs><defs><marker orient="auto" markerHeight="36" markerWidth="57" refY="18" refX="18" id="ZERO_OR_MORE_START"><circle r="6" cy="18" cx="48" fill="white" stroke="gray"></circle><path d="M0,18 Q18,0 36,18 Q18,36 0,18" fill="none" stroke="gray"></path></marker></defs><defs><marker orient="auto" markerHeight="36" markerWidth="57" refY="18" refX="39" id="ZERO_OR_MORE_END"><circle r="6" cy="18" cx="9" fill="white" stroke="gray"></circle><path d="M21,18 Q39,0 57,18 Q39,36 21,18" fill="none" stroke="gray"></path></marker></defs><path style="stroke: gray; fill: none;" marker-start="url(#ONLY_ONE_START)" marker-end="url(#ZERO_OR_MORE_END)" d="M102.395,198L102.395,206.333C102.395,214.667,102.395,231.333,113.704,248.488C125.014,265.643,147.634,283.287,158.944,292.109L170.254,300.93" class="er relationshipLine"></path><path style="stroke: gray; fill: none;" marker-start="url(#ONLY_ONE_START)" marker-end="url(#ZERO_OR_MORE_END)" d="M328.978,176L320.345,188C311.712,200,294.446,224,284.047,244.333C273.649,264.667,270.118,281.333,268.353,289.667L266.588,298" class="er relationshipLine"></path><path style="stroke: gray; fill: none;" marker-start="url(#ONLY_ONE_START)" marker-end="url(#ZERO_OR_MORE_END)" d="M570.612,143L549.567,160.5C528.521,178,486.431,213,447.084,241.655C407.738,270.31,371.137,292.621,352.836,303.776L334.535,314.931" class="er relationshipLine"></path><path style="stroke: gray; fill: none;" marker-start="url(#ONLY_ONE_START)" marker-end="url(#ZERO_OR_MORE_END)" d="M444.355,164.859L461.02,178.716C477.684,192.573,511.012,220.286,539.692,246.143C568.373,272,592.406,296,604.422,308L616.438,320" class="er relationshipLine"></path><path style="stroke: gray; fill: none;" marker-start="url(#ONLY_ONE_START)" marker-end="url(#ZERO_OR_MORE_END)" d="M635.96,143L648.55,160.5C661.14,178,686.32,213,693.782,242.5C701.244,272,690.987,296,685.859,308L680.731,320" class="er relationshipLine"></path><g transform="translate(20,20 )" id="entity-Clients-e180d3f1-f5ee-5ff5-b793-10c62afbfb39"><rect height="178" width="164.7890625" y="0" x="0" class="er entityBox"></rect><text style="dominant-baseline: middle; text-anchor: middle; font-size: 12px;" transform="translate(82.39453125,12)" y="0" x="0" id="text-entity-Clients-e180d3f1-f5ee-5ff5-b793-10c62afbfb39" class="er entityLabel">Clients</text><rect height="22" width="52.6796875" y="24" x="0" class="er attributeBoxOdd"></rect><text style="dominant-baseline: middle; font-size: 10.2px;" transform="translate(5,35)" y="0" x="0" id="text-entity-Clients-e180d3f1-f5ee-5ff5-b793-10c62afbfb39-attr-1-type" class="er entityLabel">INT</text><rect height="22" width="90.546875" y="24" x="52.6796875" class="er attributeBoxOdd"></rect><text style="dominant-baseline: middle; font-size: 10.2px;" transform="translate(57.6796875,35)" y="0" x="0" id="text-entity-Clients-e180d3f1-f5ee-5ff5-b793-10c62afbfb39-attr-1-name" class="er entityLabel">ClientID</text><rect height="22" width="21.5625" y="24" x="143.2265625" class="er attributeBoxOdd"></rect><text style="dominant-baseline: middle; font-size: 10.2px;" transform="translate(148.2265625,35)" y="0" x="0" id="text-entity-Clients-e180d3f1-f5ee-5ff5-b793-10c62afbfb39-attr-1-key" class="er entityLabel">PK</text><rect height="22" width="52.6796875" y="46" x="0" class="er attributeBoxEven"></rect><text style="dominant-baseline: middle; font-size: 10.2px;" transform="translate(5,57)" y="0" x="0" id="text-entity-Clients-e180d3f1-f5ee-5ff5-b793-10c62afbfb39-attr-2-type" class="er entityLabel">STRING</text><rect height="22" width="90.546875" y="46" x="52.6796875" class="er attributeBoxEven"></rect><text style="dominant-baseline: middle; font-size: 10.2px;" transform="translate(57.6796875,57)" y="0" x="0" id="text-entity-Clients-e180d3f1-f5ee-5ff5-b793-10c62afbfb39-attr-2-name" class="er entityLabel">ClientSegment</text><rect height="22" width="21.5625" y="46" x="143.2265625" class="er attributeBoxEven"></rect><text style="dominant-baseline: middle; font-size: 10.2px;" transform="translate(148.2265625,57)" y="0" x="0" id="text-entity-Clients-e180d3f1-f5ee-5ff5-b793-10c62afbfb39-attr-2-key" class="er entityLabel"></text><rect height="22" width="52.6796875" y="68" x="0" class="er attributeBoxOdd"></rect><text style="dominant-baseline: middle; font-size: 10.2px;" transform="translate(5,79)" y="0" x="0" id="text-entity-Clients-e180d3f1-f5ee-5ff5-b793-10c62afbfb39-attr-3-type" class="er entityLabel">STRING</text><rect height="22" width="90.546875" y="68" x="52.6796875" class="er attributeBoxOdd"></rect><text style="dominant-baseline: middle; font-size: 10.2px;" transform="translate(57.6796875,79)" y="0" x="0" id="text-entity-Clients-e180d3f1-f5ee-5ff5-b793-10c62afbfb39-attr-3-name" class="er entityLabel">ClientCountry</text><rect height="22" width="21.5625" y="68" x="143.2265625" class="er attributeBoxOdd"></rect><text style="dominant-baseline: middle; font-size: 10.2px;" transform="translate(148.2265625,79)" y="0" x="0" id="text-entity-Clients-e180d3f1-f5ee-5ff5-b793-10c62afbfb39-attr-3-key" class="er entityLabel"></text><rect height="22" width="52.6796875" y="90" x="0" class="er attributeBoxEven"></rect><text style="dominant-baseline: middle; font-size: 10.2px;" transform="translate(5,101)" y="0" x="0" id="text-entity-Clients-e180d3f1-f5ee-5ff5-b793-10c62afbfb39-attr-4-type" class="er entityLabel">BOOLEAN</text><rect height="22" width="90.546875" y="90" x="52.6796875" class="er attributeBoxEven"></rect><text style="dominant-baseline: middle; font-size: 10.2px;" transform="translate(57.6796875,101)" y="0" x="0" id="text-entity-Clients-e180d3f1-f5ee-5ff5-b793-10c62afbfb39-attr-4-name" class="er entityLabel">ClientOptINEmail</text><rect height="22" width="21.5625" y="90" x="143.2265625" class="er attributeBoxEven"></rect><text style="dominant-baseline: middle; font-size: 10.2px;" transform="translate(148.2265625,101)" y="0" x="0" id="text-entity-Clients-e180d3f1-f5ee-5ff5-b793-10c62afbfb39-attr-4-key" class="er entityLabel"></text><rect height="22" width="52.6796875" y="112" x="0" class="er attributeBoxOdd"></rect><text style="dominant-baseline: middle; font-size: 10.2px;" transform="translate(5,123)" y="0" x="0" id="text-entity-Clients-e180d3f1-f5ee-5ff5-b793-10c62afbfb39-attr-5-type" class="er entityLabel">BOOLEAN</text><rect height="22" width="90.546875" y="112" x="52.6796875" class="er attributeBoxOdd"></rect><text style="dominant-baseline: middle; font-size: 10.2px;" transform="translate(57.6796875,123)" y="0" x="0" id="text-entity-Clients-e180d3f1-f5ee-5ff5-b793-10c62afbfb39-attr-5-name" class="er entityLabel">ClientOptINPhone</text><rect height="22" width="21.5625" y="112" x="143.2265625" class="er attributeBoxOdd"></rect><text style="dominant-baseline: middle; font-size: 10.2px;" transform="translate(148.2265625,123)" y="0" x="0" id="text-entity-Clients-e180d3f1-f5ee-5ff5-b793-10c62afbfb39-attr-5-key" class="er entityLabel"></text><rect height="22" width="52.6796875" y="134" x="0" class="er attributeBoxEven"></rect><text style="dominant-baseline: middle; font-size: 10.2px;" transform="translate(5,145)" y="0" x="0" id="text-entity-Clients-e180d3f1-f5ee-5ff5-b793-10c62afbfb39-attr-6-type" class="er entityLabel">BOOLEAN</text><rect height="22" width="90.546875" y="134" x="52.6796875" class="er attributeBoxEven"></rect><text style="dominant-baseline: middle; font-size: 10.2px;" transform="translate(57.6796875,145)" y="0" x="0" id="text-entity-Clients-e180d3f1-f5ee-5ff5-b793-10c62afbfb39-attr-6-name" class="er entityLabel">ClientGender</text><rect height="22" width="21.5625" y="134" x="143.2265625" class="er attributeBoxEven"></rect><text style="dominant-baseline: middle; font-size: 10.2px;" transform="translate(148.2265625,145)" y="0" x="0" id="text-entity-Clients-e180d3f1-f5ee-5ff5-b793-10c62afbfb39-attr-6-key" class="er entityLabel"></text><rect height="22" width="52.6796875" y="156" x="0" class="er attributeBoxOdd"></rect><text style="dominant-baseline: middle; font-size: 10.2px;" transform="translate(5,167)" y="0" x="0" id="text-entity-Clients-e180d3f1-f5ee-5ff5-b793-10c62afbfb39-attr-7-type" class="er entityLabel">INT</text><rect height="22" width="90.546875" y="156" x="52.6796875" class="er attributeBoxOdd"></rect><text style="dominant-baseline: middle; font-size: 10.2px;" transform="translate(57.6796875,167)" y="0" x="0" id="text-entity-Clients-e180d3f1-f5ee-5ff5-b793-10c62afbfb39-attr-7-name" class="er entityLabel">Age</text><rect height="22" width="21.5625" y="156" x="143.2265625" class="er attributeBoxOdd"></rect><text style="dominant-baseline: middle; font-size: 10.2px;" transform="translate(148.2265625,167)" y="0" x="0" id="text-entity-Clients-e180d3f1-f5ee-5ff5-b793-10c62afbfb39-attr-7-key" class="er entityLabel"></text></g><g transform="translate(310.00390625,42 )" id="entity-Products-98ffa662-15bf-50a5-93cc-5742214cbd1a"><rect height="134" width="134.3515625" y="0" x="0" class="er entityBox"></rect><text style="dominant-baseline: middle; text-anchor: middle; font-size: 12px;" transform="translate(67.17578125,12)" y="0" x="0" id="text-entity-Products-98ffa662-15bf-50a5-93cc-5742214cbd1a" class="er entityLabel">Products</text><rect height="22" width="43.015625" y="24" x="0" class="er attributeBoxOdd"></rect><text style="dominant-baseline: middle; font-size: 10.2px;" transform="translate(5,35)" y="0" x="0" id="text-entity-Products-98ffa662-15bf-50a5-93cc-5742214cbd1a-attr-1-type" class="er entityLabel">INT</text><rect height="22" width="69.7734375" y="24" x="43.015625" class="er attributeBoxOdd"></rect><text style="dominant-baseline: middle; font-size: 10.2px;" transform="translate(48.015625,35)" y="0" x="0" id="text-entity-Products-98ffa662-15bf-50a5-93cc-5742214cbd1a-attr-1-name" class="er entityLabel">ProductID</text><rect height="22" width="21.5625" y="24" x="112.7890625" class="er attributeBoxOdd"></rect><text style="dominant-baseline: middle; font-size: 10.2px;" transform="translate(117.7890625,35)" y="0" x="0" id="text-entity-Products-98ffa662-15bf-50a5-93cc-5742214cbd1a-attr-1-key" class="er entityLabel">PK</text><rect height="22" width="43.015625" y="46" x="0" class="er attributeBoxEven"></rect><text style="dominant-baseline: middle; font-size: 10.2px;" transform="translate(5,57)" y="0" x="0" id="text-entity-Products-98ffa662-15bf-50a5-93cc-5742214cbd1a-attr-2-type" class="er entityLabel">STRING</text><rect height="22" width="69.7734375" y="46" x="43.015625" class="er attributeBoxEven"></rect><text style="dominant-baseline: middle; font-size: 10.2px;" transform="translate(48.015625,57)" y="0" x="0" id="text-entity-Products-98ffa662-15bf-50a5-93cc-5742214cbd1a-attr-2-name" class="er entityLabel">Category</text><rect height="22" width="21.5625" y="46" x="112.7890625" class="er attributeBoxEven"></rect><text style="dominant-baseline: middle; font-size: 10.2px;" transform="translate(117.7890625,57)" y="0" x="0" id="text-entity-Products-98ffa662-15bf-50a5-93cc-5742214cbd1a-attr-2-key" class="er entityLabel"></text><rect height="22" width="43.015625" y="68" x="0" class="er attributeBoxOdd"></rect><text style="dominant-baseline: middle; font-size: 10.2px;" transform="translate(5,79)" y="0" x="0" id="text-entity-Products-98ffa662-15bf-50a5-93cc-5742214cbd1a-attr-3-type" class="er entityLabel">STRING</text><rect height="22" width="69.7734375" y="68" x="43.015625" class="er attributeBoxOdd"></rect><text style="dominant-baseline: middle; font-size: 10.2px;" transform="translate(48.015625,79)" y="0" x="0" id="text-entity-Products-98ffa662-15bf-50a5-93cc-5742214cbd1a-attr-3-name" class="er entityLabel">FamilyLevel1</text><rect height="22" width="21.5625" y="68" x="112.7890625" class="er attributeBoxOdd"></rect><text style="dominant-baseline: middle; font-size: 10.2px;" transform="translate(117.7890625,79)" y="0" x="0" id="text-entity-Products-98ffa662-15bf-50a5-93cc-5742214cbd1a-attr-3-key" class="er entityLabel"></text><rect height="22" width="43.015625" y="90" x="0" class="er attributeBoxEven"></rect><text style="dominant-baseline: middle; font-size: 10.2px;" transform="translate(5,101)" y="0" x="0" id="text-entity-Products-98ffa662-15bf-50a5-93cc-5742214cbd1a-attr-4-type" class="er entityLabel">STRING</text><rect height="22" width="69.7734375" y="90" x="43.015625" class="er attributeBoxEven"></rect><text style="dominant-baseline: middle; font-size: 10.2px;" transform="translate(48.015625,101)" y="0" x="0" id="text-entity-Products-98ffa662-15bf-50a5-93cc-5742214cbd1a-attr-4-name" class="er entityLabel">FamilyLevel2</text><rect height="22" width="21.5625" y="90" x="112.7890625" class="er attributeBoxEven"></rect><text style="dominant-baseline: middle; font-size: 10.2px;" transform="translate(117.7890625,101)" y="0" x="0" id="text-entity-Products-98ffa662-15bf-50a5-93cc-5742214cbd1a-attr-4-key" class="er entityLabel"></text><rect height="22" width="43.015625" y="112" x="0" class="er attributeBoxOdd"></rect><text style="dominant-baseline: middle; font-size: 10.2px;" transform="translate(5,123)" y="0" x="0" id="text-entity-Products-98ffa662-15bf-50a5-93cc-5742214cbd1a-attr-5-type" class="er entityLabel">STRING</text><rect height="22" width="69.7734375" y="112" x="43.015625" class="er attributeBoxOdd"></rect><text style="dominant-baseline: middle; font-size: 10.2px;" transform="translate(48.015625,123)" y="0" x="0" id="text-entity-Products-98ffa662-15bf-50a5-93cc-5742214cbd1a-attr-5-name" class="er entityLabel">Universe</text><rect height="22" width="21.5625" y="112" x="112.7890625" class="er attributeBoxOdd"></rect><text style="dominant-baseline: middle; font-size: 10.2px;" transform="translate(117.7890625,123)" y="0" x="0" id="text-entity-Products-98ffa662-15bf-50a5-93cc-5742214cbd1a-attr-5-key" class="er entityLabel"></text></g><g transform="translate(594.5234375,320 )" id="entity-Stocks-f1ee2f8f-40d4-5642-a080-fae2696f92bd"><rect height="90" width="133.953125" y="0" x="0" class="er entityBox"></rect><text style="dominant-baseline: middle; text-anchor: middle; font-size: 12px;" transform="translate(66.9765625,12)" y="0" x="0" id="text-entity-Stocks-f1ee2f8f-40d4-5642-a080-fae2696f92bd" class="er entityLabel">Stocks</text><rect height="22" width="43.015625" y="24" x="0" class="er attributeBoxOdd"></rect><text style="dominant-baseline: middle; font-size: 10.2px;" transform="translate(5,35)" y="0" x="0" id="text-entity-Stocks-f1ee2f8f-40d4-5642-a080-fae2696f92bd-attr-1-type" class="er entityLabel">STRING</text><rect height="22" width="69.7109375" y="24" x="43.015625" class="er attributeBoxOdd"></rect><text style="dominant-baseline: middle; font-size: 10.2px;" transform="translate(48.015625,35)" y="0" x="0" id="text-entity-Stocks-f1ee2f8f-40d4-5642-a080-fae2696f92bd-attr-1-name" class="er entityLabel">StoreCountry</text><rect height="22" width="21.2265625" y="24" x="112.7265625" class="er attributeBoxOdd"></rect><text style="dominant-baseline: middle; font-size: 10.2px;" transform="translate(117.7265625,35)" y="0" x="0" id="text-entity-Stocks-f1ee2f8f-40d4-5642-a080-fae2696f92bd-attr-1-key" class="er entityLabel"></text><rect height="22" width="43.015625" y="46" x="0" class="er attributeBoxEven"></rect><text style="dominant-baseline: middle; font-size: 10.2px;" transform="translate(5,57)" y="0" x="0" id="text-entity-Stocks-f1ee2f8f-40d4-5642-a080-fae2696f92bd-attr-2-type" class="er entityLabel">INT</text><rect height="22" width="69.7109375" y="46" x="43.015625" class="er attributeBoxEven"></rect><text style="dominant-baseline: middle; font-size: 10.2px;" transform="translate(48.015625,57)" y="0" x="0" id="text-entity-Stocks-f1ee2f8f-40d4-5642-a080-fae2696f92bd-attr-2-name" class="er entityLabel">ProductID</text><rect height="22" width="21.2265625" y="46" x="112.7265625" class="er attributeBoxEven"></rect><text style="dominant-baseline: middle; font-size: 10.2px;" transform="translate(117.7265625,57)" y="0" x="0" id="text-entity-Stocks-f1ee2f8f-40d4-5642-a080-fae2696f92bd-attr-2-key" class="er entityLabel">FK</text><rect height="22" width="43.015625" y="68" x="0" class="er attributeBoxOdd"></rect><text style="dominant-baseline: middle; font-size: 10.2px;" transform="translate(5,79)" y="0" x="0" id="text-entity-Stocks-f1ee2f8f-40d4-5642-a080-fae2696f92bd-attr-3-type" class="er entityLabel">INT</text><rect height="22" width="69.7109375" y="68" x="43.015625" class="er attributeBoxOdd"></rect><text style="dominant-baseline: middle; font-size: 10.2px;" transform="translate(48.015625,79)" y="0" x="0" id="text-entity-Stocks-f1ee2f8f-40d4-5642-a080-fae2696f92bd-attr-3-name" class="er entityLabel">Quantity</text><rect height="22" width="21.2265625" y="68" x="112.7265625" class="er attributeBoxOdd"></rect><text style="dominant-baseline: middle; font-size: 10.2px;" transform="translate(117.7265625,79)" y="0" x="0" id="text-entity-Stocks-f1ee2f8f-40d4-5642-a080-fae2696f92bd-attr-3-key" class="er entityLabel"></text></g><g transform="translate(544.35546875,75 )" id="entity-Stores-a8cf93a9-36ad-52a8-ab9f-c67d11a26475"><rect height="68" width="134.2890625" y="0" x="0" class="er entityBox"></rect><text style="dominant-baseline: middle; text-anchor: middle; font-size: 12px;" transform="translate(67.14453125,12)" y="0" x="0" id="text-entity-Stores-a8cf93a9-36ad-52a8-ab9f-c67d11a26475" class="er entityLabel">Stores</text><rect height="22" width="43.015625" y="24" x="0" class="er attributeBoxOdd"></rect><text style="dominant-baseline: middle; font-size: 10.2px;" transform="translate(5,35)" y="0" x="0" id="text-entity-Stores-a8cf93a9-36ad-52a8-ab9f-c67d11a26475-attr-1-type" class="er entityLabel">INT</text><rect height="22" width="69.7109375" y="24" x="43.015625" class="er attributeBoxOdd"></rect><text style="dominant-baseline: middle; font-size: 10.2px;" transform="translate(48.015625,35)" y="0" x="0" id="text-entity-Stores-a8cf93a9-36ad-52a8-ab9f-c67d11a26475-attr-1-name" class="er entityLabel">StoreID</text><rect height="22" width="21.5625" y="24" x="112.7265625" class="er attributeBoxOdd"></rect><text style="dominant-baseline: middle; font-size: 10.2px;" transform="translate(117.7265625,35)" y="0" x="0" id="text-entity-Stores-a8cf93a9-36ad-52a8-ab9f-c67d11a26475-attr-1-key" class="er entityLabel">PK</text><rect height="22" width="43.015625" y="46" x="0" class="er attributeBoxEven"></rect><text style="dominant-baseline: middle; font-size: 10.2px;" transform="translate(5,57)" y="0" x="0" id="text-entity-Stores-a8cf93a9-36ad-52a8-ab9f-c67d11a26475-attr-2-type" class="er entityLabel">STRING</text><rect height="22" width="69.7109375" y="46" x="43.015625" class="er attributeBoxEven"></rect><text style="dominant-baseline: middle; font-size: 10.2px;" transform="translate(48.015625,57)" y="0" x="0" id="text-entity-Stores-a8cf93a9-36ad-52a8-ab9f-c67d11a26475-attr-2-name" class="er entityLabel">StoreCountry</text><rect height="22" width="21.5625" y="46" x="112.7265625" class="er attributeBoxEven"></rect><text style="dominant-baseline: middle; font-size: 10.2px;" transform="translate(117.7265625,57)" y="0" x="0" id="text-entity-Stores-a8cf93a9-36ad-52a8-ab9f-c67d11a26475-attr-2-key" class="er entityLabel"></text></g><g transform="translate(170.25390625,298 )" id="entity-Transactions-e4309bf2-7d25-5727-9845-92fca8e1a191"><rect height="134" width="164.28125" y="0" x="0" class="er entityBox"></rect><text style="dominant-baseline: middle; text-anchor: middle; font-size: 12px;" transform="translate(82.140625,12)" y="0" x="0" id="text-entity-Transactions-e4309bf2-7d25-5727-9845-92fca8e1a191" class="er entityLabel">Transactions</text><rect height="22" width="38.34375" y="24" x="0" class="er attributeBoxOdd"></rect><text style="dominant-baseline: middle; font-size: 10.2px;" transform="translate(5,35)" y="0" x="0" id="text-entity-Transactions-e4309bf2-7d25-5727-9845-92fca8e1a191-attr-1-type" class="er entityLabel">INT</text><rect height="22" width="104.7109375" y="24" x="38.34375" class="er attributeBoxOdd"></rect><text style="dominant-baseline: middle; font-size: 10.2px;" transform="translate(43.34375,35)" y="0" x="0" id="text-entity-Transactions-e4309bf2-7d25-5727-9845-92fca8e1a191-attr-1-name" class="er entityLabel">ClientID</text><rect height="22" width="21.2265625" y="24" x="143.0546875" class="er attributeBoxOdd"></rect><text style="dominant-baseline: middle; font-size: 10.2px;" transform="translate(148.0546875,35)" y="0" x="0" id="text-entity-Transactions-e4309bf2-7d25-5727-9845-92fca8e1a191-attr-1-key" class="er entityLabel">FK</text><rect height="22" width="38.34375" y="46" x="0" class="er attributeBoxEven"></rect><text style="dominant-baseline: middle; font-size: 10.2px;" transform="translate(5,57)" y="0" x="0" id="text-entity-Transactions-e4309bf2-7d25-5727-9845-92fca8e1a191-attr-2-type" class="er entityLabel">INT</text><rect height="22" width="104.7109375" y="46" x="38.34375" class="er attributeBoxEven"></rect><text style="dominant-baseline: middle; font-size: 10.2px;" transform="translate(43.34375,57)" y="0" x="0" id="text-entity-Transactions-e4309bf2-7d25-5727-9845-92fca8e1a191-attr-2-name" class="er entityLabel">ProductID</text><rect height="22" width="21.2265625" y="46" x="143.0546875" class="er attributeBoxEven"></rect><text style="dominant-baseline: middle; font-size: 10.2px;" transform="translate(148.0546875,57)" y="0" x="0" id="text-entity-Transactions-e4309bf2-7d25-5727-9845-92fca8e1a191-attr-2-key" class="er entityLabel">FK</text><rect height="22" width="38.34375" y="68" x="0" class="er attributeBoxOdd"></rect><text style="dominant-baseline: middle; font-size: 10.2px;" transform="translate(5,79)" y="0" x="0" id="text-entity-Transactions-e4309bf2-7d25-5727-9845-92fca8e1a191-attr-3-type" class="er entityLabel">INT</text><rect height="22" width="104.7109375" y="68" x="38.34375" class="er attributeBoxOdd"></rect><text style="dominant-baseline: middle; font-size: 10.2px;" transform="translate(43.34375,79)" y="0" x="0" id="text-entity-Transactions-e4309bf2-7d25-5727-9845-92fca8e1a191-attr-3-name" class="er entityLabel">StoreID</text><rect height="22" width="21.2265625" y="68" x="143.0546875" class="er attributeBoxOdd"></rect><text style="dominant-baseline: middle; font-size: 10.2px;" transform="translate(148.0546875,79)" y="0" x="0" id="text-entity-Transactions-e4309bf2-7d25-5727-9845-92fca8e1a191-attr-3-key" class="er entityLabel">FK</text><rect height="22" width="38.34375" y="90" x="0" class="er attributeBoxEven"></rect><text style="dominant-baseline: middle; font-size: 10.2px;" transform="translate(5,101)" y="0" x="0" id="text-entity-Transactions-e4309bf2-7d25-5727-9845-92fca8e1a191-attr-4-type" class="er entityLabel">INT</text><rect height="22" width="104.7109375" y="90" x="38.34375" class="er attributeBoxEven"></rect><text style="dominant-baseline: middle; font-size: 10.2px;" transform="translate(43.34375,101)" y="0" x="0" id="text-entity-Transactions-e4309bf2-7d25-5727-9845-92fca8e1a191-attr-4-name" class="er entityLabel">Quantity</text><rect height="22" width="21.2265625" y="90" x="143.0546875" class="er attributeBoxEven"></rect><text style="dominant-baseline: middle; font-size: 10.2px;" transform="translate(148.0546875,101)" y="0" x="0" id="text-entity-Transactions-e4309bf2-7d25-5727-9845-92fca8e1a191-attr-4-key" class="er entityLabel"></text><rect height="22" width="38.34375" y="112" x="0" class="er attributeBoxOdd"></rect><text style="dominant-baseline: middle; font-size: 10.2px;" transform="translate(5,123)" y="0" x="0" id="text-entity-Transactions-e4309bf2-7d25-5727-9845-92fca8e1a191-attr-5-type" class="er entityLabel">FLOAT</text><rect height="22" width="104.7109375" y="112" x="38.34375" class="er attributeBoxOdd"></rect><text style="dominant-baseline: middle; font-size: 10.2px;" transform="translate(43.34375,123)" y="0" x="0" id="text-entity-Transactions-e4309bf2-7d25-5727-9845-92fca8e1a191-attr-5-name" class="er entityLabel">SalesNetAmountEuro</text><rect height="22" width="21.2265625" y="112" x="143.0546875" class="er attributeBoxOdd"></rect><text style="dominant-baseline: middle; font-size: 10.2px;" transform="translate(148.0546875,123)" y="0" x="0" id="text-entity-Transactions-e4309bf2-7d25-5727-9845-92fca8e1a191-attr-5-key" class="er entityLabel"></text></g><rect height="0" width="0" y="258.2913513183594" x="121.25202941894531" class="er relationshipLabelBox"></rect><text style="text-anchor: middle; dominant-baseline: middle; font-size: 12px;" y="258.2913513183594" x="121.25202941894531" id="rel1" class="er relationshipLabel"></text><rect height="0" width="0" y="233.28973388671875" x="290.122314453125" class="er relationshipLabelBox"></rect><text style="text-anchor: middle; dominant-baseline: middle; font-size: 12px;" y="233.28973388671875" x="290.122314453125" id="rel2" class="er relationshipLabel"></text><rect height="0" width="0" y="234.6044921875" x="456.65277099609375" class="er relationshipLabelBox"></rect><text style="text-anchor: middle; dominant-baseline: middle; font-size: 12px;" y="234.6044921875" x="456.65277099609375" id="rel3" class="er relationshipLabel"></text><rect height="0" width="0" y="239.8843231201172" x="532.7002563476562" class="er relationshipLabelBox"></rect><text style="text-anchor: middle; dominant-baseline: middle; font-size: 12px;" y="239.8843231201172" x="532.7002563476562" id="rel4" class="er relationshipLabel"></text><rect height="0" width="0" y="225.79396057128906" x="688.048828125" class="er relationshipLabelBox"></rect><text style="text-anchor: middle; dominant-baseline: middle; font-size: 12px;" y="225.79396057128906" x="688.048828125" id="rel5" class="er relationshipLabel"></text></svg>